<?xml version="1.0" encoding="utf-8"?>
<!-- Generator: Adobe Illustrator 26.2.1, SVG Export Plug-In . SVG Version: 6.00 Build 0)  -->
<svg version="1.1" id="Layer_1" xmlns="http://www.w3.org/2000/svg" xmlns:xlink="http://www.w3.org/1999/xlink" x="0px" y="0px"
	 viewBox="0 0 283.1 216" style="enable-background:new 0 0 283.1 216;" xml:space="preserve">
<style type="text/css">
	.st0{display:none;}
	.st1{display:inline;}
	.st2{fill:#FFFFFF;stroke:#000000;stroke-miterlimit:10;}
	.st3{display:inline;fill:none;stroke:#000000;stroke-width:0.75;stroke-miterlimit:10;}
	.st4{display:none;fill:#231F20;}
	.st5{fill:#FFFFFF;}
	.st6{font-family:'AvianoSerif-Reg';}
	.st7{font-size:13px;}
</style>
<image style="display:none;overflow:visible;" width="4000" height="1800" xlink:href="../../../Documents/20220407_170841.jpg"  transform="matrix(0 2.966831e-02 -2.966831e-02 0 172.6651 42.6486)">
</image>
<g class="st0">
	<g class="st1">
		<path class="st2" d="M222.1,84.7h-52.2v-0.8c3.4-1,5.6-2.2,5.6-6.1v-41c0-4.7-1.8-5.7-5.6-6.8v-0.9h21.3V30
			c-3.7,1-5.8,2.2-5.8,6.8v36.2c0,2.4,1.3,3.1,3.4,3.1h23.3c5.1,0,9.6-3.1,12-7.9h0.9L222.1,84.7z"/>
	</g>
	<g class="st1">
		<path d="M176.1,42.5c-4.4,1.7-10.1,0.1-12.6-4.1c-4.3-7.2,0.3-15,7.9-17.2c7.8-2.4,21.9-3.2,27,4.5c4.1,6.5,0.8,14.7-3.4,20.3
			c-5.7,7.5-12.7,15.2-22.6,16.6c-2.4,0.4-4.8,0.5-7.2,0.5c-1.3,0-2.7-0.1-3.7-1.2c-0.9-1.2-0.2-2.8,0.6-3.9c1.5-2.1,3.8-3.2,6-4.1
			c2.2-0.9,4.6-1.5,7.1-1.6c5.1-0.4,9.3,3.1,12.2,6.9c3,3.8,4.8,8.5,5.3,13.3c0.2,2.4,0.1,4.8,0.3,7.1c0,4.5,3.1,9.6,8.1,7.7
			c4.3-1.7,6.7-6.3,9-10.2c3.4-6.1,6.3-13.1,12.4-17.1c-5.9,4.2-8.5,11.3-11.7,17.5c-2.2,4.2-4.5,9-9.3,10.7c-4,1.6-7.7-1.1-8.8-4.9
			c-1-3.5-0.6-7.2-0.9-10.7c-0.6-6.9-4.4-13.5-10.1-17.6c-3.9-2.7-9-1.8-13.2-0.2c-2.1,0.8-4.3,1.9-5.6,3.7
			c-1.9,2.6-0.2,3.5,2.3,3.5c2.3,0,4.7-0.1,7-0.5c7.1-1,12.9-5.5,17.5-10.8c4.6-5.1,9.3-11,9.5-18.2c0.5-7.9-6.6-11.8-13.7-12
			c-6.7-0.2-14.5,0.1-19.7,4.9C157.8,33.2,165.6,45.9,176.1,42.5L176.1,42.5z"/>
	</g>
</g>
<g class="st0">
	<g class="st1">
		<path d="M94.3,126.6l5-5.8h24.3V77.2h6.5v49.4H94.3z"/>
	</g>
	<g class="st1">
		<path d="M133.3,78c0-0.3,0-0.6,0-0.8h16.2c15.8,0,23.6,6,23.6,13.8c0,8.2-7.7,13.8-22.6,13.8l20.1,17.9c4.1,3.5,6.8,4.5,8.6,5.1
			v0.8h-14.5l-29.7-26.6v-1h13.3c9.5,0,13.9-4.3,13.9-9.9s-4.4-9.8-13.9-9.8c-5,0-9.9,0-14.9,0C133.3,80.1,133.3,79,133.3,78z"/>
	</g>
</g>
<g class="st0">
	<g class="st1">
		<path d="M98.8,151.7c0.4,0.4,0.9,1.1,1.1,1.9c0.4,1.8-1.4,4.5-2.5,5.9c-0.9,1.1-2.3,3-2.3,4.3c0,0.4,0.1,0.7,0.4,1
			c0.3,0.2,0.7,0.3,1.1,0.3c0.5,0,0.9-0.1,1.2-0.2c0.4-0.2,0.6,0.1,0.2,0.4c-0.2,0.2-0.8,0.3-1.4,0.3c-0.4,0-0.9-0.1-1.3-0.3
			c-0.5-0.3-1.1-1.1-1.1-2.3c0-0.9,0.3-2,1.1-3.5c1.9-3.4,3.8-4.8,3.4-6.8c-0.1-0.3-0.3-0.6-0.6-0.8c-0.6,0.1-1.2,0.1-1.8,0.1
			c-0.7,0-1.4-0.1-2-0.2c-0.1,0.1-0.1,0.2-0.2,0.3c-1.2,2.7-3.3,8.6-7.5,10.4c-1.8,0.7-3.4,1.1-4.8,1.1c-2,0-3.7-0.7-4.8-1.9
			c-0.6-0.7-1-1.6-1-2.7c0-1.9,1-4.2,2.9-6.5c2.1-2.5,5.2-4.5,7.6-4.7c0.6-1.8,1.9-3.9,3.3-5.4c1.6-1.8,4.4-3.9,7.2-4.8
			c-0.2-0.4-0.4-0.7-0.7-0.9c-0.3-0.2-0.7-0.3-1.2-0.3c-2.1,0-5.1,2-6.6,3.6c-1.9,1.9-3.2,4-3.4,4.4c-0.2,0.4-0.6,0.3-0.5-0.3
			s1.7-2.9,3.6-4.8c1.8-1.8,4.9-3.6,7.1-3.6c0.6,0,1.2,0.2,1.7,0.5c0.3,0.3,0.6,0.6,0.7,1.1c0.6-0.1,1.2-0.2,1.8-0.2
			c0.7,0,1.5,0.1,2.3,0.4c0.6,0.2,1.1,0.5,1.5,0.8c0.1-0.1,0.2-0.1,0.3-0.2c0.5-0.3,0.9,0.2,0.3,0.5c0,0-0.1,0-0.1,0.1
			c1.4,1.3,2,3.1,2,4.9c0,1.6-0.5,3.2-1.3,4.3C103,150.2,100.8,151.2,98.8,151.7z M102,138.5c-0.6-0.3-1.3-0.4-2.1-0.4
			c-0.6,0-1.4,0.1-2.1,0.3c0.3,2.3-0.8,5.8-3,8.4c-1.6,1.9-3.4,3.4-5,4.2c0.1,2.1-1.4,4.8-3.4,6.6c-1.9,1.6-3.9,2.5-5.4,2.5
			c-0.7,0-1.3-0.2-1.6-0.6c-0.2-0.3-0.3-0.7-0.3-1.2c0-1.4,1-3.3,2-4.3c1.1-1.2,1.9-1.7,2.5-1.9c0.2-0.1,0.6,0.2,0.1,0.5
			c-0.5,0.3-1.7,1.1-2.8,2.5c-0.7,1-1.3,2.2-1.3,3.1c0,0.4,0.1,0.7,0.3,1c0.2,0.2,0.6,0.3,1.1,0.3c1.2,0,3.1-0.7,5-2.6
			c1.9-1.8,3.2-3.9,3.2-5.7c-0.5,0.2-0.9,0.3-1.3,0.3c-0.4,0-0.8-0.1-1.2-0.3c-0.4-0.3-0.6-0.8-0.6-1.4c0-0.3,0-0.7,0.1-1.1
			c-2.2,0.3-5.2,2.2-7,4.5c-1.7,2.1-2.7,4.5-2.7,6.3c0,0.9,0.2,1.6,0.7,2.1c0.5,0.5,1.3,0.8,2.2,0.8c2.1,0,5-1.3,8-4.1
			c4.4-3.9,7.2-10.7,10.5-14.6c2.3-2.7,3.8-3.9,4.7-4.6C102.5,138.8,102.3,138.7,102,138.5z M88.4,149.1c-0.4-0.4-0.9-0.5-1.5-0.6
			c-0.2,1-0.1,1.7,0.3,2c0.4,0.3,1.1,0.3,1.9-0.1C89,150,88.8,149.5,88.4,149.1z M90.1,142.9c-1.6,1.8-2.7,3.6-3.1,5
			c0.7,0.1,1.4,0.3,1.8,0.8c0.4,0.4,0.7,0.9,0.8,1.5c1.5-0.8,3.3-2.3,4.7-4.2c1.9-2.5,3-5.6,2.7-7.5
			C94.6,139.3,91.9,140.9,90.1,142.9z M99.3,143c-1.5,2-3.2,5-4.5,7.6c0.4-0.1,1,0,1.5,0c0.4,0.1,1.1,0.2,1.8,0.5
			c1.4-0.5,3.1-1.5,4.5-3.6c1.1-1.6,1.9-3.4,1.9-5.1c0-1.2-0.4-2.2-1.3-3.1C102.2,140,100.7,141.2,99.3,143z M96.2,151.1
			c-0.4-0.1-0.8-0.1-0.9,0.1c-0.1,0.2,0.2,0.3,0.7,0.3c0.3,0,0.7,0,1.2-0.1C96.8,151.3,96.5,151.2,96.2,151.1z"/>
		<path d="M111.8,156.8c-0.5,0.5-2.1,2.1-3.8,2.1c-0.1,0-0.1,0-0.2,0c-0.1,0.2-0.2,0.3-0.3,0.4c-2.2,3-4.7,4.2-6.2,3.6
			c-0.7-0.3-1.1-1-1.1-2c0-1.1,0.5-2.6,1.6-4.1c2-2.9,5.2-4.8,6.7-4c0.6,0.3,0.9,1,0.9,1.8c0,1-0.4,2.4-1.3,3.8
			c1.1-0.1,2-0.6,2.8-1.4c0.8-0.8,1.5-1.7,2-2.5c0.2-0.3,0.6-0.1,0.5,0C113.4,154.9,112.5,156.1,111.8,156.8z M103.9,157.3
			c-1.6,2.2-3,5.1-2.1,5.6c1,0.5,3.3-1.6,4.8-3.9c0-0.1,0.1-0.1,0.1-0.2c-0.9-0.3-1.2-1.1-1.2-1.7c0-0.7,0.5-1.5,1-1.4
			c0.3,0.1,0.5,0.4,0.4,0.7c0,0.5-0.4,0.8-0.6,0.8c-0.2,0-0.3-0.2-0.4-0.1c-0.1,0.1-0.2,0.3,0,0.7c0.2,0.3,0.5,0.5,1,0.6
			c1.4-2.2,2.4-4.6,1.5-5.1C107.4,152.7,105.7,154.8,103.9,157.3z"/>
		<path d="M118.3,158.1c-1.1,1-2.3,1.8-3.5,2.2c-0.3,0.6-0.7,1.2-1.3,1.7c-0.9,0.7-1.9,1.1-2.8,1.1c-0.6,0-1.1-0.2-1.4-0.4
			c-0.3-0.3-0.5-0.7-0.5-1.2c0-0.6,0.3-1.4,1-2.4c0.3-0.5,0.9-0.3,1,0.1s0.3,0.7,0.6,0.9c0.3,0.2,0.8,0.4,1,0.4
			c0.1,0,0.2-0.1,0.3-0.2c0.1-0.2,0.7-1.1,0.9-2.4c0.3-2.1-0.6-2.5-0.5-3.2c0-0.7,0.4-1.2,0.7-1.8c0.5-0.8,1.3-1.8,2.1-1.3
			c0.7,0.4,0,1.1-0.3,1.5c-0.3,0.4-0.8,0.8-0.9,1.3c-0.1,0.9,0.8,2.1,0.7,3.4c0,0.5,0,1.2-0.2,1.8c0.8-0.4,1.9-1,2.8-1.8
			c1.5-1.3,2.5-2.9,2.8-3.2c0.2-0.2,0.6,0,0.4,0.3C120.5,155.7,119,157.4,118.3,158.1z M110.8,160.5c-0.2-0.2-0.5-0.6-0.5-0.7
			c-0.1-0.1-0.1,0-0.2,0c-0.1,0-0.4,0.3-0.7,1c-0.3,0.7-0.1,1.5,0.3,1.7c0.4,0.2,1,0.1,1.5-0.4c0.3-0.3,0.8-1,0.6-1
			C111.6,161,111,160.7,110.8,160.5z"/>
		<path d="M128.8,158.4c-1.3,1.3-3.3,3.8-5.9,5.4c-0.5,0.3-1,0.6-1.6,0.8c-1,1.9-1.7,3.6-2.4,4.7c-1.3,2.1-2.8,3.5-3.6,4
			c-0.5,0.3-1.4,0.7-2.3,0.7c-0.6,0-1.1-0.1-1.6-0.5c-0.5-0.5-0.7-1.1-0.7-1.7c0-0.9,0.5-2,1.5-2.9c1.7-1.6,4.6-2.8,7.3-4l0.4-0.2
			c1-1.4,1.9-2.9,2.8-4.4c-1.6,1.7-3.3,3.3-4.5,2.6c-0.6-0.3-0.9-0.9-0.9-1.6c0-1,0.5-2.3,1.3-3.7c1-1.7,2.8-4.1,3-4.3
			c0.2-0.2,0.3-0.3,0.5-0.2c0.2,0.1,1.1,0.1,1.4,0c0.3-0.1,0.5,0.1,0.3,0.3c-0.2,0.2-1.7,2.6-3.1,4.7c-1.4,2.1-2.7,4.2-2,4.6
			c0.8,0.5,3.6-2.4,5.1-4.5c1.7-2.3,3-4.7,3.1-4.8c0.2-0.2,0.3-0.4,0.5-0.3c0.2,0.1,1.2,0.1,1.6,0c0.4-0.1,0.5,0.1,0.3,0.3
			c-0.1,0.1-3.4,3.6-5.5,6.9c-0.8,1.2-1.5,2.4-2.1,3.6c1.3-0.7,2.2-1.3,3.1-2.1c1.4-1.1,3-2.9,3.9-3.9c0.9-1,2.3-2.9,2.4-3.1
			c0.1-0.1,0.3-0.2,0.5-0.2c0.1,0,0.2,0.1,0,0.4C131.2,155.5,130,157.1,128.8,158.4z M113.3,168.4c-2,1.5-2.8,3.2-1.9,4
			c1,0.8,3-1,5-3.5c0.9-1,1.8-2.1,2.7-3.4C116.9,166.5,114.6,167.5,113.3,168.4z"/>
		<path d="M160.6,165.7C160.6,165.7,160.5,165.7,160.6,165.7c-0.7,0.2-1.3,0.3-2,0.3c-0.8-0.1-1.6-0.4-2.3-0.8
			c-1.8-1.1-3.6-3.2-4.8-4.8c-1.7,1.7-3.5,2.9-5.5,3.2c-0.6,0.1-1.2,0.2-1.7,0.2c-3.9,0-6.2-2.7-6.5-5.4c-0.4-3.1,2.1-6.7,6.2-6.7
			c3.1,0,5.1,3.2,6.3,5.3c0.6-0.7,1.3-1.4,1.9-2.3c1.2-1.6,2.4-3.3,3.6-5c-0.4-0.1-0.8-0.2-1.3-0.3c-2.2-0.7-3.7-2.8-3.7-5.3
			c0-1.1,0.3-2.2,0.9-3.3c1.6-2.9,4.1-4.2,6.1-4.2c0.5,0,1,0.1,1.4,0.3c1.1,0.5,1.6,1.4,1.6,2.4c0,0.8-0.3,1.7-0.9,2.4
			c-1.4,1.7-2.8,2.3-3.2,2.3c-0.2,0-0.4-0.1-0.4-0.3c0-0.1,0.1-0.2,0.4-0.3c0.6-0.1,2-0.8,2.8-2.1c0.4-0.6,0.7-1.5,0.7-2.2
			c0-0.7-0.3-1.3-1-1.7c-0.3-0.2-0.6-0.2-1.1-0.2c-1.7,0-4.2,1.5-5.6,4c-0.6,1.2-0.9,2.3-0.9,3.5c0,1.9,1,3.6,3.1,4.2
			c0.4,0.1,0.9,0.2,1.4,0.2c2.3-3.1,4.8-6.2,7.8-9c3-2.7,5.4-3.9,6.9-3.9c0.5,0,0.8,0.1,1.2,0.3c0.3,0.2,0.5,0.6,0.5,1.2
			c0,1.8-1.6,4.9-5.3,7.8c-3.1,2.4-6.2,3.8-8.8,4.2c-0.3,0.6-0.6,1.1-0.9,1.7c-1.6,3-3.4,6.1-5.7,8.5c1.2,1.7,3,3.8,4.7,4.8
			c0.7,0.4,1.6,0.8,2.4,0.8c0.4,0,0.8-0.1,1.1-0.3c0.2-0.1,0.6-0.3,0.7,0c0,0.1,0,0.2,0,0.3C160.8,165.6,160.7,165.6,160.6,165.7z
			 M149.8,157.4c-1.1-2.1-2.9-5.2-5.9-5.2c-3.1,0-5.7,2.7-5.5,5.9c0.2,2.8,2.3,4,4.6,3.6C144.8,161.4,147.2,160,149.8,157.4z
			 M171.6,136.9c-1.1-0.8-4.8,1.4-6.8,3.3c-1.9,1.8-3.6,4.6-5.8,8.7c3.1-0.5,6.6-2.5,9-5c2.8-2.8,4-4.8,4-6
			C172,137.4,171.9,137.1,171.6,136.9z"/>
		<path d="M166.6,159.3c-1.6,1.6-5,4.4-6.8,3.7c-0.9-0.3-1.5-1.1-1.5-2.2c0-1,0.5-2.3,1.6-3.7c2.2-2.9,5.6-5,7.2-4.3
			c0.5,0.2,0.7,0.6,0.7,1.1c0,0.9-0.8,2.1-1.8,2.9c-1.2,1-3.3,1.8-4.8,1.9c-1,1.8-1.5,3.3-1,3.7c0.7,0.5,3.6-1.1,6.2-3.7
			c2.4-2.4,3.4-4,3.6-4.1c0.1-0.1,0.2-0.1,0.3-0.1c0.2,0.1,0.3,0.2,0.2,0.3C170.3,155.1,168.3,157.6,166.6,159.3z M162.2,157.2
			c-0.3,0.4-0.5,0.7-0.7,1.1c1.5,0,3.1-1.4,4.1-2.4c0.8-0.8,1.8-2.2,1.2-2.6C166.2,152.9,163.8,154.8,162.2,157.2z"/>
		<path d="M186.3,155.1c-0.4,0.4-2.2,2.7-3.8,4.5c-1.7,1.7-3.6,3.9-5,3.5c-0.7-0.2-1-0.8-1-1.5c0-0.7,0.2-1.5,0.6-2.2
			c0.8-1.4,4.2-5.6,3.7-5.8c-0.6-0.2-3.5,2.1-5.4,4.8c-1.9,2.7-2.9,4.1-3.1,4.5c-0.2,0.3-0.3,0.3-0.5,0.2c-0.2-0.2-1.1-0.1-1.4,0
			c-0.3,0.1-0.3-0.2-0.1-0.4c0.2-0.3,2.2-3.5,2.9-4.4c0.6-0.9,2.8-4.1,2.2-4.4c-0.5-0.2-3.4,2-5.5,4.7c-2,2.7-2.8,4-3,4.2
			c-0.1,0.2-0.3,0.3-0.5,0.2c-0.1-0.1-1-0.1-1.4,0.1c-0.3,0.1-0.3-0.2-0.2-0.5s5.7-9.1,5.9-9.3c0.2-0.3,0.3-0.3,0.5-0.2
			c0.2,0.1,0.7,0.2,1.2,0.1c0.4,0,0.4,0.1,0.3,0.3c-0.1,0.2-1.6,2.5-1.7,2.7c-0.1,0.2-0.1,0.3,0.2,0c0.3-0.3,1-1,2.1-1.8
			c1.1-0.8,2.5-1.8,3.5-1.5c0.5,0.2,0.7,0.5,0.7,1c0,0.5-0.2,1.1-0.4,1.7c-0.1,0.2,0,0.2,0.2,0c0.2-0.1,1.1-1.1,2-1.7
			c0.9-0.7,2-1.3,2.8-1.1c0.4,0.1,0.6,0.6,0.6,1.1c0,0.4-0.2,1-0.4,1.4c-0.6,1-2.8,3.8-3.6,4.9c-0.8,1.1-1.3,2.2-0.9,2.4
			c0.6,0.4,2.6-1.4,4.1-3.1c1.6-1.7,3.7-4.3,4-4.7c0.1-0.2,0.3-0.2,0.4-0.2C186.4,154.6,186.5,154.8,186.3,155.1z"/>
		<path d="M193.4,159.9c-1.7,1.8-3.6,3.8-4.9,3.1c-0.8-0.4-1-1.3-0.8-2.3c-1.5,1.6-3.1,2.9-4.2,2.3c-0.6-0.3-0.9-0.9-0.9-1.6
			c0-1,0.5-2.3,1.3-3.7c1-1.7,2.9-4.1,3.1-4.3c0.2-0.2,0.3-0.3,0.5-0.2c0.2,0.1,1.1,0.1,1.4,0c0.3-0.1,0.4,0.1,0.3,0.3
			s-1.7,2.7-3.1,4.7c-1.4,2.1-2.7,4.1-2,4.6c0.7,0.4,3-1.7,4.4-3.8c1.6-2.5,2.6-4,3.7-5.5c0.2-0.2,0.3-0.3,0.5-0.2
			c0.2,0.1,1,0.1,1.4,0c0.3-0.1,0.4,0.1,0.3,0.3s-1.7,2.7-3.1,4.7c-1.4,2.1-2.7,4.1-2,4.6c0.7,0.4,2.5-1.4,4-3
			c1.5-1.6,4.1-4.8,4.2-5c0.1-0.1,0.3-0.1,0.4-0.1c0.1,0,0.2,0.2,0,0.4C197.4,155.3,195.1,158.1,193.4,159.9z"/>
		<path d="M202.4,158.1c-1.1,1-2.3,1.8-3.5,2.2c-0.3,0.6-0.7,1.2-1.3,1.7c-0.8,0.7-1.9,1.1-2.8,1.1c-0.6,0-1.1-0.2-1.4-0.4
			c-0.3-0.3-0.5-0.7-0.5-1.2c0-0.6,0.3-1.4,1-2.4c0.3-0.5,0.8-0.3,1,0.1c0.1,0.4,0.3,0.7,0.6,0.9c0.3,0.2,0.8,0.4,1,0.4
			c0.1,0,0.2-0.1,0.3-0.2c0.1-0.2,0.7-1.1,0.9-2.4c0.3-2.1-0.6-2.5-0.5-3.2c0-0.7,0.4-1.2,0.7-1.8c0.5-0.8,1.3-1.8,2.1-1.3
			c0.7,0.4,0,1.1-0.3,1.5c-0.3,0.4-0.8,0.8-0.9,1.3c-0.1,0.9,0.8,2.1,0.7,3.4c0,0.5,0,1.2-0.2,1.8c0.8-0.4,1.9-1,2.8-1.8
			c1.5-1.3,2.5-2.9,2.8-3.2c0.2-0.2,0.6,0,0.4,0.3C204.6,155.7,203.1,157.4,202.4,158.1z M194.9,160.5c-0.2-0.2-0.5-0.6-0.5-0.7
			c-0.1-0.1-0.1,0-0.2,0c-0.1,0-0.4,0.3-0.7,1c-0.3,0.7-0.1,1.5,0.3,1.7c0.4,0.2,1,0.1,1.5-0.4c0.3-0.3,0.8-1,0.6-1
			C195.8,161,195.1,160.7,194.9,160.5z"/>
	</g>
	<line class="st3" x1="75" y1="168.1" x2="110.5" y2="168.5"/>
	<line class="st3" x1="121.4" y1="168.3" x2="202.9" y2="168.3"/>
</g>
<rect class="st4" width="288.8" height="216"/>
<g id="final_logo">
	<g>
		<path class="st5" d="M32.1,107.6h0.6c1.5,3,4.4,5,7.7,5h16.7c1.3,0,2.2-0.4,2.2-2V84.6c0-2.9-1.3-3.7-3.7-4.4v-0.6h13.7v0.6
			c-2.4,0.7-3.6,1.3-3.6,4.4v26.3c0,2.5,1.4,3.3,3.6,3.9v0.5H34L32.1,107.6z"/>
	</g>
	<g>
		<g>
			<path class="st5" d="M59.3,84.6c0-3-1.2-3.7-3.6-4.4v-0.6h23.8c11,0,16.4,4.2,16.4,9.6c0,5.7-5.3,9.6-15.7,9.6l14,12.4
				c2.8,2.4,4.7,3.1,6,3.6v0.5H90L69.4,96.8v-0.7h9.3c6.6,0,9.6-3,9.6-6.9s-3.1-6.8-9.6-6.8H68.3c-1.5,0-2.6,0-2.6,1.9v26.2
				c0,2.9,1.2,3.6,3.6,4.3v0.5H55.7v-0.5c2.4-0.7,3.6-1.4,3.6-4.3V84.6z"/>
		</g>
	</g>
</g>
<text transform="matrix(1 0 0 1 111.7736 115.3262)" class="st5 st6 st7">ROSY LEMUS</text>
</svg>
