<?xml version="1.0" encoding="UTF-8"?><svg xmlns="http://www.w3.org/2000/svg" viewBox="0 0 551.73 553.92"><defs><style>.d{fill:#fff;}.e{fill:none;stroke:#fff;stroke-miterlimit:10;}</style></defs><g id="a"/><g id="b"><g id="c"><g><path class="e" d="M43.33,427.85S-30.93,325.94,16.11,188.64l52.53,18.39s29.44-101,136.77-137.71l14.77,42.55"/><path class="e" d="M174.77,176.63s73.26-82,182.68-21.45l16.58-26.43s-40.58-25.53-83.1-26.68"/><path class="e" d="M436.51,438.37l-26.91-26.91c63.11-59.05,54.67-143.43,54.67-143.43-.47-94.56-86.53-145.2-86.53-145.2l20.22-32.23s62.74,36.54,88.69,105.93"/><path class="e" d="M498.87,349.81s14.88-42.24,9.37-95.67l41.43-4.79s16.33,112.15-57.07,199.26c0,0-83.25,119.44-244.19,101.17"/><path class="e" d="M123.94,377.87l-32.26,20.17s53.67,92.51,163.33,103.07"/><path class="e" d="M111.15,221.92l29.47,10.32s-29.52,75.54,27.1,142.75c0,0,34.88,44.38,94.7,50.63l-3.5,31.03s-86.52-5.09-133.47-87.64c0,0-18.99-32-21.45-59.56"/><path class="e" d="M141.49,302.36s-6.46-38.38,5.66-67.83l23.33,8.16s-19.86,46.48,11.52,98.44"/><path class="e" d="M266.73,387.33s48.18,8.12,88.6-30.13l27.3,27.3s-31.05,31.45-70.44,38.48"/><path class="e" d="M180.24,322.94s-17.7-30.22-3.23-77.95l14.9,5.22s-15.99,42.84,12.43,83.48c0,0,23.55,34.02,64.15,37.95"/><path class="e" d="M404.67,406.54s60.5-50.45,51.91-146.44l-31.03,3.58s4.24,39.11-9.5,70.5"/><path class="e" d="M344.2,346.06l11.14,11.14s37.21-30.46,31.93-89.1l-15.69,1.81"/><path class="e" d="M248.25,192.71l-5.18-14.91s50.69-19.02,93.87,10.07"/><path class="e" d="M240.8,171.25l-8.11-23.35s65.27-27.16,129.96,19.23c0,0,48.65,31.91,56.05,97.33"/><path class="e" d="M401.67,84.68l25.87-41.24S321.6-31.62,187.17,16.74l15.94,45.95s62.83-21.5,107.45-10.91"/><circle class="d" cx="310.56" cy="51.77" r="4.62"/><circle class="d" cx="401.67" cy="84.68" r="4.62"/><circle class="d" cx="486.64" cy="196.53" r="4.62"/><circle class="d" cx="436.51" cy="438.37" r="4.62"/><circle class="d" cx="498.87" cy="349.81" r="4.62"/><circle class="d" cx="293.35" cy="103.4" r="4.62"/><circle class="d" cx="220.18" cy="111.87" r="4.62"/><circle class="d" cx="178.73" cy="337.86" r="4.62"/><circle class="d" cx="178.37" cy="319.65" r="4.62"/><circle class="d" cx="141.1" cy="298.82" r="4.62"/><circle class="d" cx="267.61" cy="387.87" r="4.62"/><circle class="d" cx="253.59" cy="501.1" r="4.62"/><circle class="d" cx="314.1" cy="423.46" r="4.62"/><circle class="d" cx="342.52" cy="344.38" r="4.62"/><circle class="d" cx="371.58" cy="269.91" r="4.62"/><circle class="d" cx="248.25" cy="192.71" r="4.62"/><circle class="d" cx="238.94" cy="169.39" r="4.62"/><circle class="d" cx="336.69" cy="187.63" r="4.62"/><circle class="d" cx="416.64" cy="334.01" r="4.62"/><circle class="d" cx="174.77" cy="176.63" r="4.62"/><circle class="d" cx="404.8" cy="406.67" r="4.62"/><circle class="d" cx="418.7" cy="262.49" r="4.62"/><circle class="d" cx="266.54" cy="372.18" r="4.62"/><circle class="d" cx="104" cy="310.87" r="4.62"/><circle class="d" cx="123.23" cy="378.57" r="4.62"/><circle class="d" cx="111.86" cy="222.63" r="4.62"/><circle class="d" cx="247.93" cy="549.3" r="4.62"/><circle class="d" cx="43.33" cy="427.85" r="4.62"/></g></g></g></svg>