<svg xmlns="http://www.w3.org/2000/svg" width="212.09" height="35.99" viewBox="0 0 212.09 35.99"><defs><style>.cls-1{fill:#fff;}</style></defs><g id="Layer_2" data-name="Layer 2"><g id="Layer_1-2" data-name="Layer 1"><g id="final_logo" data-name="final logo"><path class="cls-1" d="M0,28H.58a8.73,8.73,0,0,0,7.68,5H25c1.35,0,2.21-.44,2.21-2V4.94c0-2.92-1.34-3.69-3.7-4.36V0H37.16V.58c-2.45.72-3.6,1.34-3.6,4.36V31.25c0,2.54,1.39,3.31,3.6,3.94v.52H1.87Z"/><path class="cls-1" d="M27.15,4.94c0-3-1.25-3.69-3.6-4.36V0H47.31c11,0,16.42,4.18,16.42,9.6,0,5.71-5.33,9.6-15.75,9.6L62,31.63a17.22,17.22,0,0,0,6,3.56v.52H57.87L37.23,17.19v-.68h9.26c6.58,0,9.65-3,9.65-6.91s-3.07-6.82-9.65-6.82H36.12c-1.53,0-2.59.05-2.59,1.92V30.87c0,2.88,1.2,3.64,3.6,4.32v.52H23.55v-.52c2.35-.68,3.6-1.44,3.6-4.32Z"/></g><path class="cls-1" d="M82.24,26.1c0-.94-.39-1.15-1.12-1.36v-.18h7.42c3.44,0,5.13,1.3,5.13,3s-1.66,3-4.92,3l4.38,3.88A5.34,5.34,0,0,0,95,35.55v.16H91.84l-6.45-5.78v-.21h2.9c2,0,3-.93,3-2.16s-1-2.13-3-2.13H85.05c-.48,0-.81,0-.81.6V34.2c0,.9.37,1.14,1.12,1.35v.16H81.12v-.16c.73-.21,1.12-.45,1.12-1.35Z"/><path class="cls-1" d="M103.54,26.19c3.32,0,6.57,1.68,6.57,4.79s-3.33,5-6.81,5-6.6-1.76-6.6-4.8S100,26.19,103.54,26.19Zm-.07,9c2.52,0,4.39-1.59,4.39-4S106,27,103.3,27,99,28.6,99,31A4.19,4.19,0,0,0,103.47,35.16Z"/><path class="cls-1" d="M111.91,32.78h.18C112.83,34.61,115,35,117,35s3.62-.37,3.62-1.63c0-2.66-8.27-.17-8.27-4.41,0-2.42,2.69-2.81,4.68-2.81a7.4,7.4,0,0,1,3.75.72l.26-.25h.15V29H121c-.32-1.41-2.09-1.91-3.89-1.91s-3.24.32-3.24,1.43c0,2.67,8.24.15,8.24,4.47,0,2.58-2.94,3-5.12,3a12.39,12.39,0,0,1-4.81-.83Z"/><path class="cls-1" d="M130.63,31.73v2.92c.05.56.38.77.93.9v.16h-3.84v-.16c.53-.13.89-.34.93-.9V32.13l-4.2-4.63a2.78,2.78,0,0,0-1.48-.9v-.18h4.18v.18c-.48.1-.9.24-.46.73l3.16,3.54,3.47-3.54c.49-.51-.06-.69-.47-.73v-.18h3.36v.18c-.52.06-.78.19-1.78,1.23Z"/><path class="cls-1" d="M154.72,35.71h-11v-.16c.69-.19,1.12-.43,1.12-1.23V26.1c0-.94-.36-1.14-1.12-1.36v-.18H148v.18c-.73.21-1.15.45-1.15,1.36v8.16c0,.48.27.61.69.61h5.22a2.72,2.72,0,0,0,2.4-1.57h.18Z"/><path class="cls-1" d="M160.17,30.54h3.54a1.26,1.26,0,0,0,1.38-.94h.16L165,32.33h-.18a1,1,0,0,0-1.14-.95h-3.54v3.2c0,.19.07.29.24.29h5a2,2,0,0,0,1.9-1.3h.17L167,35.71h-9.76v-.16c.6-.17.93-.4.93-1.15V27.75a1,1,0,0,0-.93-1.15v-.18h9.37a.77.77,0,0,0,.33-.15h.18l-.27,2.22h-.18c0-.45-.3-1.22-1.54-1.22h-5Z"/><path class="cls-1" d="M171.94,27.74c.2-.81-.34-1-.82-1.14v-.18h3.07L177.76,33l3.77-6.55h2.95v.18c-.54.15-1,.42-.84,1.11l1.4,6.15c.28,1.26.49,1.48,1.14,1.69v.16h-3.54v-.16c.43-.06.6-.22.6-.63a4.69,4.69,0,0,0-.12-.83L181.78,28l-4.44,7.79h-.18L173,28.17l-1.31,5.94a3.1,3.1,0,0,0-.09.66c0,.51.24.69.68.78v.16h-2.81v-.16c.35-.1.75-.24,1.07-1.51Z"/><path class="cls-1" d="M199.17,31.56c0,3.27-2.55,4.43-5.18,4.43-3.19,0-5.29-1.16-5.29-4.45V27.75a1,1,0,0,0-.93-1.15v-.18h3.93v.18c-.57.18-.93.39-.93,1.15v3.79c0,2.78,1.39,3.56,3.51,3.56,1.6,0,3.58-.56,3.58-3.54V27.75A1,1,0,0,0,197,26.6v-.18h3.15v.18a1,1,0,0,0-.93,1.15Z"/><path class="cls-1" d="M201.91,32.78h.18C202.83,34.61,205,35,207,35s3.62-.37,3.62-1.63c0-2.66-8.27-.17-8.27-4.41,0-2.42,2.69-2.81,4.68-2.81a7.4,7.4,0,0,1,3.75.72l.26-.25h.14V29H211c-.32-1.41-2.09-1.91-3.89-1.91s-3.24.32-3.24,1.43c0,2.67,8.23.15,8.23,4.47,0,2.58-2.93,3-5.11,3a12.39,12.39,0,0,1-4.81-.83Z"/></g></g></svg>